<svg xmlns="http://www.w3.org/2000/svg" aria-hidden="true" style="position:absolute;width:0;height:0;overflow:hidden">
  <defs>
    <symbol id="icon-facebook" viewBox="0 0 18 32">
      <path fill="#fff" d="M11.069 32H6.013a1.544 1.544 0 0 1-1.532-1.552V18.889h-2.95a1.544 1.544 0 0 1-1.532-1.552v-4.953c0-.856.687-1.552 1.532-1.552h2.95v-2.48c0-2.459.762-4.551 2.203-6.05C8.132.796 10.155.001 12.535.001l3.856.006a1.544 1.544 0 0 1 1.529 1.552v4.599c0 .856-.687 1.552-1.531 1.552l-2.596.001c-.792 0-.993.161-1.037.21-.071.082-.156.313-.156.951v1.959h3.593c.27 0 .532.068.758.195.486.275.788.795.788 1.358l-.002 4.953c0 .855-.687 1.552-1.532 1.552H12.6v11.559c0 .856-.687 1.552-1.532 1.552zm-4.737-1.876h4.417V18.049a1.03 1.03 0 0 1 1.023-1.036h4.115l.002-4.305h-4.117a1.03 1.03 0 0 1-1.022-1.036V8.873c0-.733.073-1.566.619-2.193.66-.757 1.699-.845 2.423-.845l2.277-.001V1.882l-3.535-.006c-3.825 0-6.201 2.481-6.201 6.476v3.32a1.03 1.03 0 0 1-1.022 1.036H1.852v4.305h3.459a1.03 1.03 0 0 1 1.022 1.036v12.075zM16.388 1.882z" style="fill:var(--color1, #fff)"/>
    </symbol>
    <symbol id="icon-instagram" viewBox="0 0 32 32">
      <path fill="#fff" d="M22.641.061H8.404C3.77.061.001 3.831.001 8.464v14.238c0 4.633 3.77 8.403 8.403 8.403h14.238c4.633 0 8.403-3.77 8.403-8.403V8.464c0-4.634-3.77-8.403-8.403-8.403zm6.583 22.641a6.59 6.59 0 0 1-6.583 6.583H8.404a6.59 6.59 0 0 1-6.583-6.583V8.464a6.59 6.59 0 0 1 6.583-6.583h14.238a6.59 6.59 0 0 1 6.583 6.583v14.238z" style="fill:var(--color1, #fff)"/>
      <path fill="#fff" d="M15.522 7.094c-4.681 0-8.488 3.808-8.488 8.488s3.808 8.488 8.488 8.488c4.681 0 8.488-3.808 8.488-8.488s-3.808-8.488-8.488-8.488zm0 15.157c-3.677 0-6.668-2.991-6.668-6.668s2.992-6.668 6.668-6.668c3.677 0 6.668 2.992 6.668 6.668s-2.991 6.668-6.668 6.668zM24.214 4.08c-1.383 0-2.508 1.125-2.508 2.508s1.125 2.508 2.508 2.508 2.508-1.125 2.508-2.508-1.125-2.508-2.508-2.508zm0 3.196a.69.69 0 0 1 0-1.376c.38 0 .689.309.689.688s-.309.688-.689.688z" style="fill:var(--color1, #fff)"/>
    </symbol>
    <symbol id="icon-telegram" viewBox="0 0 42 32">
      <path fill="#fff" d="M41.758.556a1.53 1.53 0 0 0-1.704-.463L1.431 13.977a2.153 2.153 0 0 0-1.414 1.765c-.1.806.258 1.588.928 2.039l5.521 3.749a1.747 1.747 0 0 0 1.795.102l11.976-6.282-9.334 6.933a1.74 1.74 0 0 0-.7 1.389v6.422c0 .662.365 1.269.953 1.584s1.3.284 1.859-.083l4.194-2.768 4.125 2.798a2.184 2.184 0 0 0 3.072-.646L41.88 2.316a1.516 1.516 0 0 0-.122-1.76zm-19.29 28.865-4.271-2.897a1.743 1.743 0 0 0-1.945-.012l-3.581 2.363v-4.841l16.481-12.241c.736-.547.921-1.542.431-2.314s-1.474-1.034-2.286-.607L7.496 19.259l-4.67-3.171L38.392 3.303l-15.925 26.12z" style="fill:var(--color1, #fff)"/>
    </symbol>
    <symbol id="icon-whatsapp" viewBox="0 0 32 32">
      <path fill="#fff" d="M26.635 4.47A14.953 14.953 0 0 0 15.99.061h-.001c-1.989 0-3.927.385-5.761 1.145S6.752 3.064 5.345 4.47A14.957 14.957 0 0 0 .936 15.115c0 2.398.579 4.781 1.675 6.905l-2.53 7.229a1.384 1.384 0 0 0 .33 1.446 1.38 1.38 0 0 0 1.446.33l7.229-2.53a15.105 15.105 0 0 0 6.905 1.675c4.021 0 7.802-1.566 10.645-4.409s4.409-6.624 4.409-10.645-1.566-7.802-4.409-10.645zm-1.288 20.003a13.145 13.145 0 0 1-9.358 3.876c-2.162 0-4.311-.535-6.213-1.547a1.403 1.403 0 0 0-1.118-.087L2.09 29.014l2.299-6.568a1.406 1.406 0 0 0-.087-1.119 13.267 13.267 0 0 1-1.547-6.212c0-3.535 1.377-6.858 3.876-9.358s5.822-3.876 9.357-3.876h.001c3.535 0 6.858 1.377 9.358 3.876s3.876 5.823 3.876 9.358a13.15 13.15 0 0 1-3.876 9.358z" style="fill:var(--color1, #fff)"/>
      <path fill="#fff" d="M21.584 16.46a1.777 1.777 0 0 0-2.512 0l-.757.758a11.025 11.025 0 0 1-4.428-4.428l.758-.757a1.777 1.777 0 0 0 0-2.512L12.604 7.48a1.777 1.777 0 0 0-2.512 0L8.459 9.113c-.935.935-.982 2.543-.131 4.528.739 1.723 2.09 3.617 3.805 5.332s3.609 3.067 5.332 3.806c.943.404 1.801.606 2.542.606.819 0 1.495-.246 1.986-.737l1.633-1.633c.336-.336.52-.782.52-1.256s-.185-.921-.52-1.256l-2.041-2.041zm-.879 4.899c-.267.267-1.088.36-2.523-.254-1.515-.649-3.207-1.864-4.762-3.42s-2.77-3.247-3.419-4.762c-.615-1.435-.522-2.256-.255-2.523l1.602-1.602 1.978 1.978-.948.948a1.39 1.39 0 0 0-.257 1.618 12.843 12.843 0 0 0 5.642 5.642 1.39 1.39 0 0 0 1.618-.257l.948-.948 1.978 1.978-1.602 1.601z" style="fill:var(--color1, #fff)"/>
    </symbol>
  </defs>
</svg>
